<svg width="20" height="20" viewBox="0 0 20 20" fill="none" xmlns="http://www.w3.org/2000/svg">
<path d="M1.64722 7.82485C1.64723 6.90827 1.92528 6.01326 2.44464 5.25802C2.964 4.50278 3.70023 3.92284 4.5561 3.59481C5.41197 3.26677 6.34721 3.20607 7.23831 3.42072C8.1294 3.63537 8.93442 4.11527 9.54705 4.79704C9.5902 4.84318 9.64236 4.87996 9.70031 4.9051C9.75826 4.93025 9.82076 4.94323 9.88393 4.94323C9.9471 4.94323 10.0096 4.93025 10.0675 4.9051C10.1255 4.87996 10.1777 4.84318 10.2208 4.79704C10.8315 4.11084 11.6367 3.6269 12.5293 3.40965C13.4218 3.19239 14.3593 3.25212 15.2171 3.58087C16.0749 3.90963 16.8121 4.49183 17.3308 5.24998C17.8495 6.00812 18.125 6.90626 18.1206 7.82485C18.1206 9.71106 16.8851 11.1195 15.6496 12.355L11.126 16.7312C10.9725 16.9075 10.7833 17.0491 10.5709 17.1466C10.3585 17.2441 10.1278 17.2953 9.89405 17.2968C9.66033 17.2983 9.42897 17.25 9.21534 17.1552C9.00172 17.0604 8.81071 16.9212 8.65501 16.7469L4.11823 12.355C2.88272 11.1195 1.64722 9.7193 1.64722 7.82485Z" stroke="#B7CFCF" stroke-width="1.64734" stroke-linecap="round" stroke-linejoin="round"/>
</svg>
