<svg width="25" height="25" viewBox="0 0 25 25" fill="none" xmlns="http://www.w3.org/2000/svg">
<path d="M14.5552 19.5231V12.9218C14.5552 12.703 14.4683 12.4931 14.3135 12.3383C14.1588 12.1836 13.9489 12.0966 13.73 12.0966H10.4294C10.2106 12.0966 10.0007 12.1836 9.84593 12.3383C9.69118 12.4931 9.60425 12.703 9.60425 12.9218V19.5231" stroke="#B7CFCF" stroke-width="1.65031" stroke-linecap="round" stroke-linejoin="round"/>
<path d="M4.65308 10.4464C4.65302 10.2063 4.70534 9.9691 4.80638 9.75134C4.90742 9.53357 5.05476 9.34048 5.23811 9.18552L11.0142 4.23457C11.3121 3.98283 11.6895 3.8447 12.0795 3.8447C12.4695 3.8447 12.8469 3.98283 13.1448 4.23457L18.9209 9.18552C19.1042 9.34048 19.2516 9.53357 19.3526 9.75134C19.4536 9.9691 19.506 10.2063 19.5059 10.4464V17.8728C19.5059 18.3105 19.332 18.7302 19.0225 19.0397C18.713 19.3492 18.2933 19.5231 17.8556 19.5231H6.30339C5.8657 19.5231 5.44594 19.3492 5.13644 19.0397C4.82695 18.7302 4.65308 18.3105 4.65308 17.8728V10.4464Z" stroke="#B7CFCF" stroke-width="1.65031" stroke-linecap="round" stroke-linejoin="round"/>
</svg>
