<svg width="25" height="25" viewBox="0 0 25 25" fill="none" xmlns="http://www.w3.org/2000/svg">
<path d="M14.567 6.95976C14.3114 6.95976 14.0592 6.90027 13.8306 6.78601L10.361 5.05121C10.1323 4.93695 9.8802 4.87746 9.62457 4.87746M14.567 6.95976C14.8226 6.95976 15.0748 6.90027 15.3034 6.78601L18.3175 5.27856C18.4432 5.21576 18.5828 5.18615 18.7232 5.19254C18.8635 5.19893 18.9999 5.24112 19.1194 5.31508C19.2388 5.38905 19.3374 5.49234 19.4056 5.61513C19.4739 5.73792 19.5096 5.87614 19.5094 6.01663V16.5308C19.5094 16.6838 19.4667 16.8337 19.3862 16.9637C19.3058 17.0938 19.1907 17.1989 19.0539 17.2673L15.3034 19.1429C15.0748 19.2572 14.8226 19.3167 14.567 19.3167M14.567 6.95976V19.3167M14.567 19.3167C14.3114 19.3167 14.0592 19.2572 13.8306 19.1429L10.361 17.4081C10.1323 17.2939 9.8802 17.2344 9.62457 17.2344C9.36894 17.2344 9.11681 17.2939 8.88814 17.4081L5.87408 18.9156C5.74834 18.9784 5.60861 19.008 5.46819 19.0016C5.32777 18.9952 5.19133 18.9529 5.07186 18.8788C4.95238 18.8048 4.85385 18.7014 4.78563 18.5785C4.71741 18.4556 4.68178 18.3172 4.68213 18.1767V7.66329C4.68221 7.51035 4.72487 7.36046 4.80532 7.23039C4.88578 7.10033 5.00085 6.99523 5.13766 6.92687L8.88814 5.05121C9.11681 4.93695 9.36894 4.87746 9.62457 4.87746M9.62457 4.87746V17.2335" stroke="#B7CFCF" stroke-width="1.64748" stroke-linecap="round" stroke-linejoin="round"/>
</svg>
