<svg width="20" height="20" viewBox="0 0 20 20" fill="none" xmlns="http://www.w3.org/2000/svg">
<path d="M12.3767 4.75575C12.1206 4.75575 11.8681 4.69617 11.639 4.58171L8.16375 2.84408C7.93471 2.72962 7.68217 2.67004 7.42612 2.67004M12.3767 4.75575C12.6327 4.75575 12.8852 4.69617 13.1143 4.58171L16.1333 3.0718C16.2592 3.0089 16.3991 2.97923 16.5396 2.98564C16.6802 2.99204 16.8168 3.03429 16.9365 3.10838C17.0561 3.18246 17.1548 3.28592 17.2232 3.40892C17.2916 3.53191 17.3274 3.67035 17.3272 3.81108V14.3425C17.3271 14.4957 17.2844 14.6458 17.2038 14.7761C17.1232 14.9064 17.0079 15.0117 16.8709 15.0801L13.1143 16.9589C12.8852 17.0733 12.6327 17.1329 12.3767 17.1329M12.3767 4.75575V17.1329M12.3767 17.1329C12.1206 17.1329 11.8681 17.0733 11.639 16.9589L8.16375 15.2212C7.93471 15.1068 7.68217 15.0472 7.42612 15.0472C7.17007 15.0472 6.91754 15.1068 6.68849 15.2212L3.66949 16.7311C3.54354 16.7941 3.40358 16.8237 3.26293 16.8173C3.12228 16.8109 2.98562 16.7685 2.86595 16.6944C2.74628 16.6202 2.64759 16.5166 2.57926 16.3935C2.51093 16.2704 2.47524 16.1318 2.47559 15.991V5.46043C2.47567 5.30725 2.5184 5.15711 2.59898 5.02683C2.67957 4.89655 2.79483 4.79128 2.93186 4.7228L6.68849 2.84408C6.91754 2.72962 7.17007 2.67004 7.42612 2.67004M7.42612 2.67004V15.0463" stroke="#B7CFCF" stroke-width="1.65018" stroke-linecap="round" stroke-linejoin="round"/>
</svg>
