<svg width="25" height="25" viewBox="0 0 25 25" fill="none" xmlns="http://www.w3.org/2000/svg">
<path d="M10.1602 5.6014C10.2056 5.12395 10.4273 4.68057 10.7821 4.35789C11.1369 4.0352 11.5993 3.85639 12.0789 3.85639C12.5585 3.85639 13.0209 4.0352 13.3757 4.35789C13.7305 4.68057 13.9523 5.12395 13.9977 5.6014C14.0249 5.90983 14.1261 6.20714 14.2926 6.46818C14.4592 6.72922 14.6861 6.9463 14.9543 7.10104C15.2225 7.25578 15.524 7.34363 15.8334 7.35715C16.1427 7.37068 16.4508 7.30948 16.7314 7.17873C17.1672 6.98087 17.6611 6.95224 18.1168 7.09841C18.5726 7.24458 18.9577 7.55511 19.1971 7.96954C19.4365 8.38397 19.5132 8.87267 19.4122 9.34051C19.3112 9.80836 19.0397 10.2219 18.6506 10.5006C18.3972 10.6784 18.1904 10.9146 18.0476 11.1892C17.9048 11.4638 17.8302 11.7688 17.8302 12.0783C17.8302 12.3879 17.9048 12.6928 18.0476 12.9675C18.1904 13.2421 18.3972 13.4783 18.6506 13.6561C19.0397 13.9348 19.3112 14.3483 19.4122 14.8162C19.5132 15.284 19.4365 15.7727 19.1971 16.1871C18.9577 16.6016 18.5726 16.9121 18.1168 17.0583C17.6611 17.2044 17.1672 17.1758 16.7314 16.9779C16.4508 16.8472 16.1427 16.786 15.8334 16.7995C15.524 16.813 15.2225 16.9009 14.9543 17.0556C14.6861 17.2104 14.4592 17.4275 14.2926 17.6885C14.1261 17.9495 14.0249 18.2468 13.9977 18.5553C13.9523 19.0327 13.7305 19.4761 13.3757 19.7988C13.0209 20.1215 12.5585 20.3003 12.0789 20.3003C11.5993 20.3003 11.1369 20.1215 10.7821 19.7988C10.4273 19.4761 10.2056 19.0327 10.1602 18.5553C10.133 18.2467 10.0318 17.9493 9.8652 17.6882C9.69862 17.427 9.47157 17.2099 9.20327 17.0551C8.93496 16.9004 8.63332 16.8126 8.32387 16.7991C8.01443 16.7857 7.7063 16.847 7.42559 16.9779C6.98978 17.1758 6.49594 17.2044 6.04018 17.0583C5.58442 16.9121 5.19935 16.6016 4.95992 16.1871C4.72049 15.7727 4.64382 15.284 4.74484 14.8162C4.84586 14.3483 5.11734 13.9348 5.50644 13.6561C5.75982 13.4783 5.96665 13.2421 6.10944 12.9675C6.25223 12.6928 6.32678 12.3879 6.32678 12.0783C6.32678 11.7688 6.25223 11.4638 6.10944 11.1892C5.96665 10.9146 5.75982 10.6784 5.50644 10.5006C5.11788 10.2217 4.84688 9.80838 4.74611 9.34085C4.64533 8.87332 4.72198 8.38503 4.96116 7.97086C5.20033 7.5567 5.58494 7.24625 6.04025 7.09986C6.49556 6.95346 6.98903 6.98157 7.42477 7.17873C7.70544 7.30948 8.01348 7.37068 8.32282 7.35715C8.63215 7.34363 8.93368 7.25578 9.20187 7.10104C9.47006 6.9463 9.69702 6.72922 9.86355 6.46818C10.0301 6.20714 10.1313 5.90983 10.1585 5.6014" stroke="#B7CFCF" stroke-width="1.64734" stroke-linecap="round" stroke-linejoin="round"/>
<path d="M12.0784 14.5498C13.4431 14.5498 14.5494 13.4435 14.5494 12.0788C14.5494 10.7141 13.4431 9.60775 12.0784 9.60775C10.7137 9.60775 9.60742 10.7141 9.60742 12.0788C9.60742 13.4435 10.7137 14.5498 12.0784 14.5498Z" stroke="#B7CFCF" stroke-width="1.64734" stroke-linecap="round" stroke-linejoin="round"/>
</svg>
