<svg width="25" height="25" viewBox="0 0 25 25" fill="none" xmlns="http://www.w3.org/2000/svg">
<path d="M10.1611 5.61869C10.2065 5.1412 10.4283 4.69778 10.7831 4.37507C11.138 4.05236 11.6004 3.87354 12.08 3.87354C12.5597 3.87354 13.0221 4.05236 13.3769 4.37507C13.7318 4.69778 13.9535 5.1412 13.9989 5.61869C14.0262 5.92714 14.1274 6.22448 14.2939 6.48554C14.4605 6.7466 14.6874 6.9637 14.9557 7.11845C15.2239 7.2732 15.5254 7.36106 15.8348 7.37459C16.1441 7.38811 16.4522 7.3269 16.7329 7.19615C17.1688 6.99827 17.6626 6.96963 18.1184 7.11582C18.5742 7.26201 18.9593 7.57256 19.1988 7.98702C19.4382 8.40149 19.5149 8.89023 19.4139 9.35811C19.3129 9.82599 19.0414 10.2395 18.6522 10.5183C18.3988 10.6961 18.192 10.9323 18.0492 11.207C17.9064 11.4816 17.8318 11.7866 17.8318 12.0962C17.8318 12.4057 17.9064 12.7107 18.0492 12.9854C18.192 13.26 18.3988 13.4962 18.6522 13.674C19.0414 13.9528 19.3129 14.3663 19.4139 14.8342C19.5149 15.3021 19.4382 15.7908 19.1988 16.2053C18.9593 16.6198 18.5742 16.9303 18.1184 17.0765C17.6626 17.2227 17.1688 17.1941 16.7329 16.9962C16.4522 16.8654 16.1441 16.8042 15.8348 16.8177C15.5254 16.8313 15.2239 16.9191 14.9557 17.0739C14.6874 17.2286 14.4605 17.4457 14.2939 17.7068C14.1274 17.9678 14.0262 18.2652 13.9989 18.5736C13.9535 19.0511 13.7318 19.4945 13.3769 19.8172C13.0221 20.14 12.5597 20.3188 12.08 20.3188C11.6004 20.3188 11.138 20.14 10.7831 19.8172C10.4283 19.4945 10.2065 19.0511 10.1611 18.5736C10.1339 18.2651 10.0327 17.9676 9.86611 17.7065C9.69952 17.4453 9.47245 17.2281 9.20413 17.0734C8.9358 16.9186 8.63413 16.8308 8.32466 16.8173C8.01519 16.8039 7.70704 16.8652 7.42631 16.9962C6.99046 17.1941 6.49657 17.2227 6.04078 17.0765C5.58498 16.9303 5.19988 16.6198 4.96043 16.2053C4.72098 15.7908 4.6443 15.3021 4.74533 14.8342C4.84636 14.3663 5.11786 13.9528 5.50699 13.674C5.76039 13.4962 5.96724 13.26 6.11004 12.9854C6.25285 12.7107 6.3274 12.4057 6.3274 12.0962C6.3274 11.7866 6.25285 11.4816 6.11004 11.207C5.96724 10.9323 5.76039 10.6961 5.50699 10.5183C5.11841 10.2394 4.84738 9.82601 4.7466 9.35845C4.64582 8.89088 4.72247 8.40255 4.96166 7.98835C5.20086 7.57415 5.58551 7.26368 6.04085 7.11727C6.4962 6.97086 6.98971 6.99897 7.42548 7.19615C7.70618 7.3269 8.01424 7.38811 8.3236 7.37459C8.63297 7.36106 8.93452 7.2732 9.20273 7.11845C9.47094 6.9637 9.69792 6.7466 9.86446 6.48554C10.031 6.22448 10.1322 5.92714 10.1595 5.61869" stroke="#B7CFCF" stroke-width="1.64748" stroke-linecap="round" stroke-linejoin="round"/>
<path d="M12.0796 14.5678C13.4444 14.5678 14.5508 13.4614 14.5508 12.0966C14.5508 10.7318 13.4444 9.62536 12.0796 9.62536C10.7148 9.62536 9.6084 10.7318 9.6084 12.0966C9.6084 13.4614 10.7148 14.5678 12.0796 14.5678Z" stroke="#B7CFCF" stroke-width="1.64748" stroke-linecap="round" stroke-linejoin="round"/>
</svg>
